<?xml version="1.0" encoding="utf-8"?>
<!-- Generator: Adobe Illustrator 20.1.0, SVG Export Plug-In . SVG Version: 6.00 Build 0)  -->
<svg version="1.1" id="Layer_1" xmlns="http://www.w3.org/2000/svg" xmlns:xlink="http://www.w3.org/1999/xlink" x="0px" y="0px"
	 viewBox="0 0 500 300" style="enable-background:new 0 0 500 300;" xml:space="preserve">
<style type="text/css">
	.st0{fill-rule:evenodd;clip-rule:evenodd;fill:#FFFFFF;}
	.st1{fill-rule:evenodd;clip-rule:evenodd;fill:#FFFFFF;stroke:#FFFFFF;stroke-width:5;stroke-linecap:round;stroke-miterlimit:3;}
	.st2{fill-rule:evenodd;clip-rule:evenodd;fill:#FFFFFF;stroke:#FFFFFF;stroke-width:3;stroke-linecap:round;stroke-miterlimit:3;}
</style>
<g>
	<path class="st0" d="M408,225c1.1,2,1.6,4.2,1.6,6.5c0,2.4-0.5,4.6-1.6,6.5c-0.7,1.2-1.5,2.3-2.5,3.3c-2.7,2.7-5.9,4.1-9.8,4.1
		c-3.9,0-7.2-1.4-10-4.1c-2.7-2.7-4-5.9-4-9.8c0-3.9,1.3-7.2,4-9.9c2.8-2.7,6.1-4,10-4c3.8,0,7.1,1.3,9.8,4
		C406.5,222.7,407.3,223.8,408,225z"/>
	<path class="st1" d="M384.2,85.8l23.7,23.6l-8.2,8.2l-7.9,7.9l-7.9,7.9l-7.8,7.9l-7.9,7.8l-7.9,7.9l-7.8,7.9l-7.9,7.8l-8.6,8.6
		l-7.6,7.7l-7.4,7.3l-7.9,7.9l-8,7.9l-7.8,7.9l-7.9,7.8l-8,7.9l-6.2,6.3l-23.7-23.6l-8.2-8.4l45.6-45.6L243,118.4l-4.5-4.7
		l-8.2-15.9l-7.9-15l12.4,6.1l16.2,8.2l6.2,6.1l46.5,46.5L376,77.4L384.2,85.8z M336,181.3l-11.5-10.6L312,158.1l-8.3-8.3
		 M260.2,154.9l-8.3-8.4c4.9,5.2,4.8,10.4-0.4,15.5L241,172.6l-51.1,51l8.7,8.7l61.6-61.5C265.5,165.4,265.5,160.2,260.2,154.9z
		 M321,196.3l-23.6-23.6l-45.8,45.8 M297.5,172.7l-8.4-8.2 M251.9,146.5l-91.2-91.2c-5.3-5.3-10.6-5.3-15.9,0L134.4,66L76,124.3
		c-2.1,2.1-2.1,4.1,0,6.2l100.6,100.7c2,1.9,4,1.8,6-0.2l7.2-7.4 M198.6,248c0.4-0.4,0.8-0.9,1.2-1.4c3.9-4.7,3.5-9.5-1.2-14.3
		l-7.2,7.3c-2.1,2.1-4.2,2.1-6.4,0l-8.4-8.4 M312,158.1l72.2-72.3"/>
	<path class="st2" d="M384.7,118.4l7.1,7.1 M388.7,106.6l11,11 M372.9,122.4l11,11 M369,134.2l7.2,7.1 M337.5,165.6l7.2,7.1
		 M341.5,153.9l11,11 M353.2,149.9l7.1,7.1 M357.2,138.1l11,11 M230.3,97.8l4.5-8.9 M257.2,103.2c-0.5-0.2-1.2-0.4-1.9-0.4
		c-1.3,0.1-2.4,0.5-3.5,1.2c-0.1,0.1-0.2,0.2-0.3,0.3c-1,1-1.6,2.3-1.6,3.8c0,0.5-0.1,1.1-0.2,1.9l0.1,0.1l78.7,78.8 M249.6,110.1
		C249.6,110.1,249.6,110.2,249.6,110.1C249.7,110.2,249.7,110.2,249.6,110.1 M249.6,110.2c-2.7,0.1-4.6,0.7-5.6,1.7
		c-0.4,0.4-0.7,0.9-0.9,1.4c-0.4,0.7-0.7,1.5-0.8,2.5c0,1,0.2,1.9,0.6,2.7 M134.4,66L241,172.6 M294.2,201.1l11,11 M290.3,212.9
		l7.2,7.1 M274.5,228.6l7.1,7.1 M278.5,216.8l11,11 M306,197.1l7.2,7.1"/>
</g>
</svg>
